# xmcd
#
# Track frame offsets: 
#        150
#        18780
#        38437
#        59617
#        76927
#        96652
#        118950
#        134730
#        153730
#        171215
#
# Disc length: 2530 seconds
#
# Revision: 0
# Processed by: cddbd v1.5.2PL0 Copyright (c) Steve Scherf et al.
# Submitted via: ExactAudioCopy v0.95b4
#
DISCID=8809e00a
DTITLE=陳曉東 (Daniel Chan) - 風一樣的男子
DYEAR=1998
DGENRE=Pop
TTITLE0=特務
TTITLE1=If
TTITLE2=風一樣的男子
TTITLE3=最佳男朋友
TTITLE4=Good-Bye
TTITLE5=為我多留一夜
TTITLE6=輕挑
TTITLE7=以為你只對我好
TTITLE8=心事背後
TTITLE9=一場雨
EXTD=
EXTT0=
EXTT1=
EXTT2=
EXTT3=
EXTT4=
EXTT5=
EXTT6=
EXTT7=
EXTT8=
EXTT9=
PLAYORDER=
